<svg width="32" height="32" viewBox="0 0 32 32" fill="none" xmlns="http://www.w3.org/2000/svg">
<path d="M13.3334 14.6667L28 15.8667C28.33 15.9315 28.6233 16.1187 28.8211 16.3907C29.0189 16.6627 29.1067 16.9994 29.0667 17.3333L28.18 22.8773C28.1299 23.1906 27.9697 23.4757 27.7283 23.6815C27.4868 23.8872 27.1799 24.0002 26.8627 24H26.6667" stroke="black" stroke-width="2" stroke-linecap="round" stroke-linejoin="round"/>
<path d="M21.3333 24H14.6666" stroke="black" stroke-width="2" stroke-linecap="round" stroke-linejoin="round"/>
<path d="M24 6.66666C23.6463 6.66666 23.3072 6.80713 23.0571 7.05718C22.8071 7.30723 22.6666 7.64637 22.6666 7.99999V15.4307" stroke="black" stroke-width="2" stroke-linecap="round" stroke-linejoin="round"/>
<path d="M4 5.33334H14.8387C15.1605 5.33353 15.4714 5.45012 15.714 5.66161C15.9566 5.87309 16.1146 6.1652 16.1587 6.48401L17.3333 14.9947" stroke="black" stroke-width="2" stroke-linecap="round" stroke-linejoin="round"/>
<path d="M5.33337 14.6667V5.33334" stroke="black" stroke-width="2" stroke-linecap="round" stroke-linejoin="round"/>
<path d="M9.33337 20H9.34671" stroke="black" stroke-width="2" stroke-linecap="round" stroke-linejoin="round"/>
<path d="M10.6666 13.4667V5.33334" stroke="black" stroke-width="2" stroke-linecap="round" stroke-linejoin="round"/>
<path d="M24 26.6667C25.4728 26.6667 26.6667 25.4728 26.6667 24C26.6667 22.5273 25.4728 21.3333 24 21.3333C22.5273 21.3333 21.3334 22.5273 21.3334 24C21.3334 25.4728 22.5273 26.6667 24 26.6667Z" stroke="black" stroke-width="2" stroke-linecap="round" stroke-linejoin="round"/>
<path d="M9.33329 26.6667C13.0152 26.6667 16 23.6819 16 20C16 16.3181 13.0152 13.3333 9.33329 13.3333C5.65139 13.3333 2.66663 16.3181 2.66663 20C2.66663 23.6819 5.65139 26.6667 9.33329 26.6667Z" stroke="black" stroke-width="2" stroke-linecap="round" stroke-linejoin="round"/>
</svg>
