<svg width="36" height="36" viewBox="0 0 36 36" fill="none" xmlns="http://www.w3.org/2000/svg">
<rect width="36" height="36" rx="6" fill="black" fill-opacity="0.05"/>
<g clip-path="url(#clip0_1471_9730)">
<path d="M18 8.10251C12.4775 8.10251 8 12.58 8 18.1025C8 23.1158 11.6933 27.2558 16.505 27.9792V20.7525H14.0308V18.1242H16.505V16.375C16.505 13.4792 17.9158 12.2083 20.3225 12.2083C21.475 12.2083 22.085 12.2942 22.3733 12.3325V14.6267H20.7317C19.71 14.6267 19.3533 15.5958 19.3533 16.6875V18.1242H22.3475L21.9417 20.7525H19.3533V28C24.2342 27.3383 28 23.165 28 18.1025C28 12.58 23.5225 8.10251 18 8.10251Z" fill="#0962F7"/>
</g>
<defs>
<clipPath id="clip0_1471_9730">
<rect width="20" height="20" fill="white" transform="translate(8 8)"/>
</clipPath>
</defs>
</svg>
