<svg width="36" height="36" viewBox="0 0 36 36" fill="none" xmlns="http://www.w3.org/2000/svg">
<rect width="36" height="36" rx="6" fill="black" fill-opacity="0.05"/>
<g clip-path="url(#clip0_1471_9731)">
<path d="M13.8807 8C10.6527 8 8 10.6491 8 13.8807V22.1193C8 25.3473 10.6491 28 13.8807 28H22.1193C25.3473 28 28 25.3509 28 22.1193V13.8807C28 10.6527 25.3509 8 22.1193 8H13.8807ZM13.8807 9.81818H22.1193C24.3672 9.81818 26.1818 11.6328 26.1818 13.8807V22.1193C26.1818 24.3672 24.3672 26.1818 22.1193 26.1818H13.8807C11.6328 26.1818 9.81818 24.3672 9.81818 22.1193V13.8807C9.81818 11.6328 11.6328 9.81818 13.8807 9.81818ZM23.3693 11.8068C22.9112 11.8068 22.5455 12.1726 22.5455 12.6307C22.5455 13.0888 22.9112 13.4545 23.3693 13.4545C23.8274 13.4545 24.1932 13.0888 24.1932 12.6307C24.1932 12.1726 23.8274 11.8068 23.3693 11.8068ZM18 12.5455C14.9993 12.5455 12.5455 14.9993 12.5455 18C12.5455 21.0007 14.9993 23.4545 18 23.4545C21.0007 23.4545 23.4545 21.0007 23.4545 18C23.4545 14.9993 21.0007 12.5455 18 12.5455ZM18 14.3636C20.0206 14.3636 21.6364 15.9794 21.6364 18C21.6364 20.0206 20.0206 21.6364 18 21.6364C15.9794 21.6364 14.3636 20.0206 14.3636 18C14.3636 15.9794 15.9794 14.3636 18 14.3636Z" fill="#FF0067"/>
</g>
<defs>
<clipPath id="clip0_1471_9731">
<rect width="20" height="20" fill="white" transform="translate(8 8)"/>
</clipPath>
</defs>
</svg>
