<svg width="36" height="36" viewBox="0 0 36 36" fill="none" xmlns="http://www.w3.org/2000/svg">
<rect width="36" height="36" rx="6" fill="black" fill-opacity="0.05"/>
<g clip-path="url(#clip0_1471_9732)">
<path d="M24.25 8H11.75C9.67969 8 8 9.67969 8 11.75V24.25C8 26.3203 9.67969 28 11.75 28H24.25C26.3203 28 28 26.3203 28 24.25V11.75C28 9.67969 26.3203 8 24.25 8ZM14.1839 24.9772H11.0769L11.0589 15.6743H14.1659L14.1839 24.9772ZM12.5523 14.4573H12.5343C11.5186 14.4573 10.8636 13.7572 10.8636 12.8858C10.8636 11.9934 11.5397 11.3173 12.5733 11.3173C13.607 11.3173 14.241 11.9934 14.262 12.8858C14.262 13.7572 13.604 14.4573 12.5523 14.4573ZM24.9561 24.9772H21.8221V19.9231C21.8221 18.7001 21.4976 17.8678 20.4038 17.8678C19.5685 17.8678 19.1178 18.4297 18.9014 18.9736C18.8203 19.1689 18.7993 19.4363 18.7993 19.7097V24.9772H15.6502L15.6322 15.6743H18.7813L18.7993 16.9874C19.2019 16.3654 19.872 15.485 21.4766 15.485C23.4657 15.485 24.9531 16.7831 24.9531 19.5745V24.9772H24.9561Z" fill="#0B65C2"/>
</g>
<defs>
<clipPath id="clip0_1471_9732">
<rect width="20" height="20" fill="white" transform="translate(8 8)"/>
</clipPath>
</defs>
</svg>
