<?xml version="1.0" encoding="utf-8"?>
<!-- Generator: Adobe Illustrator 27.2.0, SVG Export Plug-In . SVG Version: 6.00 Build 0)  -->
<svg version="1.1" id="Layer_1" xmlns="http://www.w3.org/2000/svg" xmlns:xlink="http://www.w3.org/1999/xlink" x="0px" y="0px"
	 viewBox="0 0 400 170" style="enable-background:new 0 0 400 170;" xml:space="preserve">
<style type="text/css">
	.st0{fill:#07102B;}
	.st1{fill:#FFFFFF;}
	.st2{fill-rule:evenodd;clip-rule:evenodd;fill:#FF5C8A;}
	.st3{fill-rule:evenodd;clip-rule:evenodd;fill:#FFD955;}
	.st4{fill-rule:evenodd;clip-rule:evenodd;fill:#9583ED;}
	.st5{fill-rule:evenodd;clip-rule:evenodd;fill:#2ECCB2;}
</style>
<g>
	<g>
		<g>
			<path class="st0" d="M174.3,82.1c4.2,0,6.2-1.2,6.2-3.7c0-2-3.4-3.6-10.2-4.8c-8.7-1.6-13.1-5.4-13.2-11.6
				c0-8.5,6.7-12.5,15.7-12.6c5,0,9.1,1.1,12,3.3c2.9,2.3,4.5,5.5,4.7,9.6h-6.2c-2.3-0.1-3.8-0.9-4.4-2.5c-0.7-1.7-2.7-2.7-5.9-2.7
				c-3.9,0-5.8,1-5.8,3c0,2,2.5,3.6,7.6,4.5c6.7,1.3,11.1,3,13.2,5c1.9,1.9,2.7,4.3,2.7,7c0,9.7-7.6,13.2-18,13.2
				c-5.5,0-9.7-1.2-12.3-3.5c-3-2.2-4.5-5.6-4.5-10.2h10.1C166.4,80.6,169.5,82.1,174.3,82.1z"/>
			<path class="st0" d="M207.5,57h-1v21.8c0,1.6,1,2.5,2.9,2.5h3v7.5c-3.2,0.3-6.7,0.3-10.4-0.1c-3.7-0.4-5.5-2.7-5.4-7.1V38.7h5.1
				c2.6,0,4.8,2.4,4.8,5v6.2h5.9v2.2C212.4,54.9,210.3,57,207.5,57z"/>
			<path class="st0" d="M228.2,60.2h-9.9c1.2-7.3,6.3-10.8,15.4-10.8c10.8,0,16.3,3.6,16.6,10.8v13.4c0,10.8-6.5,15.7-17.2,16.4
				c-9.4,0.7-16-3.6-16-12.3c0.2-9.4,7.1-12,17-12.9c4.2-0.5,6.4-1.8,6.4-3.9c-0.2-2.2-2.3-3.3-6.4-3.3
				C230.7,57.4,228.8,58.3,228.2,60.2z M240.7,73.1v-3.6c-2.3,1-5,1.8-7.9,2.4c-3.9,0.7-5.9,2.6-5.9,5.5c0.2,3.1,1.9,4.6,5,4.6
				C237.4,81.9,240.7,78.6,240.7,73.1z"/>
			<path class="st0" d="M256.5,68.9c0.3-12.7,7.1-19,20.2-19h1.4v10.2h-3.3c-5.5,0-8.2,2.9-8.2,8.6v20.4h-10V68.9z"/>
			<path class="st0" d="M295.9,57h-1v21.8c0,1.6,1,2.5,2.9,2.5h3v7.5c-3.2,0.3-6.7,0.3-10.4-0.1c-3.7-0.4-5.5-2.7-5.4-7.1V38.7h5.1
				c2.6,0,4.8,2.4,4.8,5v6.2h5.9v2.2C300.8,54.9,298.6,57,295.9,57z"/>
			<path class="st0" d="M339.5,73.5c0,6.8-1.7,11.2-5.2,13.4c-3.5,2-7.4,3-11.6,3c-4.1,0-7.7-1.1-11.1-3.3
				c-3.4-2.2-5.1-6.5-5.1-13.1V49.9h9.9v25.6c0,4.4,2.2,6.5,6.7,6.5c4.5,0,6.7-2.2,6.7-6.5V54.8c-0.1-3.3,1.5-4.9,4.8-4.9h5V73.5z"
				/>
			<path class="st0" d="M355.1,99.7c0,3.3-1.6,4.9-4.9,4.9h-5V67c0.5-11.7,6.6-17.5,18.4-17.5c12.2,0,18.3,6.6,18.3,19.8
				c0,13.4-5.2,20.3-15.7,20.6c-4.9,0-8.6-2-11.1-6.1V99.7z M363.5,81.1c5.3,0,8.1-3.8,8.3-11.4c0-7.9-2.8-11.9-8.5-11.9
				s-8.3,3.9-8.2,11.9C355.4,77.3,358.2,81.1,363.5,81.1z"/>
		</g>
		<g>
			<path class="st0" d="M173.6,118.8l-1.4,1.8c-1.6-1.3-3.3-2-5.6-2c-4.6,0-7.8,3.6-7.8,10.8c0,7.2,3.2,10.5,7.7,10.5
				c2.4,0,4-0.8,5.8-2.1l1.3,1.9c-2,1.7-4.4,2.7-7.2,2.7c-6.4,0-10.7-4.8-10.7-12.9c0-8.1,4.2-13.2,10.6-13.2
				C169.3,116.3,171.5,117,173.6,118.8z"/>
			<path class="st0" d="M197.9,140.5l-0.6,2c-2.2-0.4-3.5-1.5-3.9-4.2c-1.8,2.9-4.5,4.2-7.8,4.2c-4.8,0-7.8-3-7.8-7.5
				c0-5.3,4-8.1,10.4-8.1h4.8v-2.4c0-4-1.6-5.8-5.8-5.8c-2,0-4.3,0.5-6.8,1.4l-0.7-2.1c2.8-1.1,5.3-1.7,7.9-1.7c5.7,0,8.2,2.8,8.2,8
				v12.1C195.8,139.1,196.6,140,197.9,140.5z M193,135.8v-6.9h-4.4c-5,0-7.9,2-7.9,6c0,3.5,2,5.4,5.3,5.4
				C189.2,140.2,191.4,138.6,193,135.8z"/>
			<path class="st0" d="M217.3,140.9c-1.5,1-3.3,1.6-5.3,1.6c-3.8,0-6.1-2.3-6.1-6.6v-16.8h-4.2v-2.3h4.2v-6l2.8-0.3v6.3h6.5
				l-0.3,2.3h-6.1v16.6c0,2.9,1.2,4.4,3.7,4.4c1.4,0,2.6-0.4,3.8-1.1L217.3,140.9z"/>
			<path class="st0" d="M240.1,140.5l-0.6,2c-2.2-0.4-3.5-1.5-3.9-4.2c-1.8,2.9-4.5,4.2-7.8,4.2c-4.8,0-7.8-3-7.8-7.5
				c0-5.3,4-8.1,10.4-8.1h4.8v-2.4c0-4-1.6-5.8-5.8-5.8c-2,0-4.3,0.5-6.8,1.4l-0.7-2.1c2.8-1.1,5.3-1.7,7.9-1.7c5.7,0,8.2,2.8,8.2,8
				v12.1C238,139.1,238.8,140,240.1,140.5z M235.2,135.8v-6.9h-4.4c-5,0-7.9,2-7.9,6c0,3.5,2,5.4,5.3,5.4
				C231.5,140.2,233.7,138.6,235.2,135.8z"/>
			<path class="st0" d="M247.6,137.7v-31.1l2.8-0.3v31.3c0,1.6,0.7,2.4,2,2.4c0.6,0,1.2-0.1,1.8-0.3l0.7,2.1
				c-0.8,0.4-1.8,0.7-2.8,0.7C249.4,142.5,247.6,140.9,247.6,137.7z"/>
			<path class="st0" d="M280.8,129.3c0,8.1-4,13.2-10.7,13.2c-6.7,0-10.6-5-10.6-13.1s4.1-13.1,10.7-13.1
				C276.9,116.3,280.8,121.1,280.8,129.3z M262.6,129.4c0,7.1,2.8,10.7,7.6,10.7c4.8,0,7.7-3.6,7.7-10.8c0-7.1-2.8-10.7-7.7-10.7
				C265.5,118.6,262.6,122.2,262.6,129.4z"/>
			<path class="st0" d="M307.7,117.4c-1.7,0.5-3.9,0.7-7,0.7c2.6,1.2,4.3,3.4,4.3,6.8c0,4.9-3.4,8.3-9.1,8.3c-1.2,0-2.3-0.1-3.3-0.5
				c-1.2,0.7-1.9,1.7-1.9,2.9c0,1.5,1,2.6,4,2.6h4.1c5,0,8.1,2.7,8.1,6.4c0,4.5-3.6,7.2-10.9,7.2c-7.6,0-10.5-2.2-10.5-7.2h2.6
				c0,3.5,1.9,4.9,7.9,4.9c5.9,0,8.1-1.8,8.1-4.8c0-2.7-2.1-4.2-5.7-4.2h-4.1c-4.2,0-6.2-2-6.2-4.4c0-1.7,1-3.2,2.7-4.3
				c-2.9-1.5-4.2-3.7-4.2-7.1c0-5,3.7-8.5,9.2-8.5c6.7,0.1,8.5-0.6,11-1.6L307.7,117.4z M289.5,124.8c0,4,2.5,6.3,6.3,6.3
				c4.1,0,6.3-2.3,6.3-6.3c0-3.9-2.1-6.4-6.3-6.4S289.5,121.1,289.5,124.8z"/>
		</g>
	</g>
	<g>
		<g>
			<path class="st2" d="M51.2,106.7c-14,41.7-17.5,44,10.8,22.6c4-3,7.9-6.5,11-10.7V88.6c-7.2,5.9-14.2,11.8-21.3,17.7
				C51.5,106.4,51.4,106.5,51.2,106.7z"/>
		</g>
		<g>
			<path class="st2" d="M105.2,106.2c-7-5.9-14.2-11.7-21.3-17.6v30.1c2.8,3.8,6.3,7.1,9.8,9.7c29.6,22.3,26.2,20.5,12-21.7
				C105.6,106.5,105.4,106.4,105.2,106.2z"/>
		</g>
		<path class="st3" d="M93.8,69.9c-18.3-56.6-12.4-56.6-30.6,0C6.5,69.8,5.5,64.7,47.5,94.5l26.3-21.9c2.6-2.2,6.8-2.2,9.4,0
			l26.3,21.9C151.4,64.7,150.5,69.8,93.8,69.9z"/>
	</g>
</g>
</svg>
